<svg width="18" height="18" viewBox="0 0 18 18" fill="none" xmlns="http://www.w3.org/2000/svg">
<g clip-path="url(#clip0_11_1179)">
<path d="M11.25 6C11.7157 6.3493 12.0937 6.80224 12.3541 7.32295C12.6145 7.84366 12.75 8.41783 12.75 9C12.75 9.58217 12.6145 10.1563 12.3541 10.6771C12.0937 11.1978 11.7157 11.6507 11.25 12" stroke="white" stroke-width="1.5" stroke-linecap="round" stroke-linejoin="round"/>
<path d="M4.5 11.2499H3C2.80109 11.2499 2.61032 11.1709 2.46967 11.0302C2.32902 10.8896 2.25 10.6988 2.25 10.4999V7.49992C2.25 7.30101 2.32902 7.11024 2.46967 6.96959C2.61032 6.82894 2.80109 6.74992 3 6.74992H4.5L7.125 3.37492C7.19055 3.24759 7.29949 3.14791 7.43212 3.09389C7.56475 3.03986 7.71233 3.03506 7.84819 3.08035C7.98405 3.12564 8.09923 3.21803 8.17292 3.34082C8.24662 3.46362 8.27395 3.60873 8.25 3.74992V14.2499C8.27395 14.3911 8.24662 14.5362 8.17292 14.659C8.09923 14.7818 7.98405 14.8742 7.84819 14.9195C7.71233 14.9648 7.56475 14.96 7.43212 14.906C7.29949 14.8519 7.19055 14.7522 7.125 14.6249L4.5 11.2499Z" stroke="white" stroke-width="1.5" stroke-linecap="round" stroke-linejoin="round"/>
</g>
<defs>
<clipPath id="clip0_11_1179">
<rect width="18" height="18" fill="white"/>
</clipPath>
</defs>
</svg>
