<svg xmlns="http://www.w3.org/2000/svg" width="10" height="12" viewBox="0 0 10 12" fill="none">
<path d="M2.57737 0.346191H0.961989C0.515913 0.346191 0.154297 0.707808 0.154297 1.15388V10.8462C0.154297 11.2923 0.515913 11.6539 0.961989 11.6539H2.57737C3.02345 11.6539 3.38507 11.2923 3.38507 10.8462V1.15388C3.38507 0.707808 3.02345 0.346191 2.57737 0.346191Z" fill="#ffffff"/>
<path d="M9.03891 0.346191H7.42353C6.97745 0.346191 6.61584 0.707808 6.61584 1.15388V10.8462C6.61584 11.2923 6.97745 11.6539 7.42353 11.6539H9.03891C9.48499 11.6539 9.84661 11.2923 9.84661 10.8462V1.15388C9.84661 0.707808 9.48499 0.346191 9.03891 0.346191Z" fill="#ffffff"/>
</svg>